<svg xmlns="http://www.w3.org/2000/svg" viewBox="0 0 1572.43 558.58"><defs><style>.cls-1{fill:#f4f4f4;}.cls-2{fill:#fff;}.cls-3{fill:#f6f8ff;}.cls-4{fill:#dabaff;}.cls-5{fill:#b1f1cc;}.cls-6{fill:#fcd6e4;}.cls-7{fill:none;}.cls-8{opacity:0.18;}.cls-9{fill:#8600bf;}.cls-10{fill:#ff3b8b;}.cls-11{opacity:0.26;}.cls-12{fill:#42b270;}</style></defs><g id="Layer_2" data-name="Layer 2"><g id="Layer_1-2" data-name="Layer 1"><rect id="Rectangle_170" data-name="Rectangle 170" class="cls-1" x="1105.43" y="258.21" width="467" height="293" rx="30"/><g id="Rectangle_156" data-name="Rectangle 156"><rect class="cls-2" x="1122.44" y="31.22" width="432.98" height="462.98" rx="12.99"/><path class="cls-3" d="M1538.41,48.23v429h-399v-429h399m4-34h-407a30,30,0,0,0-30,30v437a30,30,0,0,0,30,30h407a30,30,0,0,0,30-30v-437a30,30,0,0,0-30-30Z"/></g><rect id="Rectangle_170-2" data-name="Rectangle 170" class="cls-1" x="573.94" y="263.45" width="467" height="293" rx="30"/><g id="Rectangle_156-2" data-name="Rectangle 156"><rect class="cls-2" x="590.95" y="36.46" width="432.98" height="462.98" rx="12.99"/><path class="cls-3" d="M1006.93,53.46v429H608v-429h399m4-34h-407a30,30,0,0,0-30,30v437a30,30,0,0,0,30,30h407a30,30,0,0,0,30-30v-437a30,30,0,0,0-30-30Z"/></g><rect id="Rectangle_170-3" data-name="Rectangle 170" class="cls-1" y="265.58" width="467" height="293" rx="30"/><g id="Rectangle_156-3" data-name="Rectangle 156"><rect class="cls-2" x="17.01" y="38.59" width="432.98" height="462.98" rx="12.99"/><path class="cls-3" d="M433,55.6v429H34V55.6H433m4-34H30a30,30,0,0,0-30,30v437a30,30,0,0,0,30,30H437a30,30,0,0,0,30-30v-437a30,30,0,0,0-30-30Z"/></g><rect id="Rectangle_157" data-name="Rectangle 157" class="cls-4" x="114.41" y="110.4" width="202" height="202" rx="30"/><rect id="Rectangle_157-2" data-name="Rectangle 157-2" class="cls-5" x="1247.73" y="110.4" width="202" height="202" rx="30"/><rect id="Rectangle_157-3" data-name="Rectangle 157-3" class="cls-6" x="707.94" y="110.4" width="202" height="202" rx="30"/><rect class="cls-7" x="78.29" y="138.4" width="219.13" height="219.13"/><path class="cls-7" d="M745.56,148.79H879.77V283H745.56Z"/><g class="cls-8"><path class="cls-9" d="M81,78.77H40.26V13.38H154.19V313.62H81Z"/></g><g class="cls-8"><path class="cls-10" d="M614.17,262.48C681,207.31,752.1,152.58,752.1,99.56c0-22.84-10.35-37.5-32.76-37.5-22,0-34.91,17.24-34.91,47H613.31C615.47,32.76,665,0,722.36,0,793.9,0,825.8,41.81,825.8,94.82c0,69-61.63,124.13-111.63,162.49H830.54v59.91H614.17Z"/></g><g class="cls-11"><path class="cls-12" d="M1232.32,0c65.15,0,100.26,37.23,100.26,83.76,0,40.61-25.38,62.19-46.53,69.38v1.69c30.88,10.15,52,33.84,52,74.45,0,52-37.23,89.26-101.95,89.26-64.3,0-110.83-30.46-113-100.26h70.22c.43,24.12,13.54,40.19,40.19,40.19,22.42,0,34.69-14.38,34.69-34.69,0-27.49-16.5-38.49-54.15-38.49H1200.6v-58.8h13.53c24.54,0,48.23-5.93,48.23-33.85,0-20.72-12.27-32.15-31.73-32.15-23.27,0-31.73,16.92-33,33.85H1127C1129.53,33.42,1169.29,0,1232.32,0Z"/></g><path d="M1417.28,272.18,1314.57,159.69c7.51-4.28,21.75-6,31.23-6a2.68,2.68,0,1,0,0-5.35c-2.92,0-23.84.29-34.87,7.37l-3.72-4.08A10.09,10.09,0,1,0,1293,165.89l8.76,8a76,76,0,0,0-1.35,14.55c0,32.11-4.73,42.12-7.85,48.76-1.53,3.23-2.85,6-2.85,10.05,0,13,26.4,13.37,29.41,13.37,14.26,0,29.41-4.68,29.41-13.37s-15.15-13.36-29.41-13.36a2.67,2.67,0,1,0,0,5.34c14.69,0,24.06,4.75,24.06,8s-9.37,8-24.06,8c-9.7,0-24.06-2.56-24.06-8,0-2.82.93-4.79,2.34-7.78,3.32-7.05,8.35-17.73,8.35-51a75.4,75.4,0,0,1,.73-10.24L1413.51,276a2.63,2.63,0,0,0,1.8.7,2.67,2.67,0,0,0,2-4.48ZM1310.27,169a2.68,2.68,0,0,1-3.78,0l-5.35-5.35a2.67,2.67,0,0,1,3.78-3.78l.88.87a11,11,0,0,0-1.07,2.21,2.68,2.68,0,0,0,1.68,3.39,2.87,2.87,0,0,0,.86.14,2.66,2.66,0,0,0,2.49-1.77l.51.51A2.68,2.68,0,0,1,1310.27,169Z"/><path d="M851.81,190.13H773.52a16.76,16.76,0,0,0-16.78,16.78v33.55h22.37v22.37h67.11V240.46h22.37V206.91A16.76,16.76,0,0,0,851.81,190.13ZM835,251.65H790.3v-28H835Zm16.78-39.15a5.59,5.59,0,1,1,5.59-5.59A5.6,5.6,0,0,1,851.81,212.5Zm-5.59-50.33H779.11v22.37h67.11Z"/><path d="M271.55,246l-8.15,8.15-5.46-5.45,8.15-8.15-14.91-14.92L243,233.79l-5.46-5.46,8.15-8.15-14.91-14.91-8.15,8.15L217.2,208l8.15-8.15-15-15L202.21,193l-5.46-5.46,8.15-8.15L190,164.45l-8.15,8.15-5.46-5.46,8.15-8.15-18-18V248.63A15.42,15.42,0,0,0,181.91,264H289.54Zm-82-5.07V196.66l44.28,44.28Z"/></g></g></svg>