<svg xmlns="http://www.w3.org/2000/svg" viewBox="0 0 413.35 94.56"><defs><style>.cls-1{fill:#fff;}.cls-2{fill:none;stroke:#000;stroke-linecap:round;stroke-miterlimit:10;stroke-width:5.67px;}</style></defs><title>Asset 3</title><g id="Layer_2" data-name="Layer 2"><g id="Layer_1-2" data-name="Layer 1"><path class="cls-1" d="M86.25,78a4.64,4.64,0,0,0,3.64,4.52l33.68,7.29c12.28,2.66,24.64,1.68,36.81-1,9.13-2,18.21-4.24,27.34-6.28a4.62,4.62,0,0,0,3.62-4.5V40.85a4.62,4.62,0,0,0-2.76-4.23L162.05,24.88c-6.24-2.76-12.16-6.78-18.87-8.33a19.13,19.13,0,0,0-13,1.85C118.55,24.25,106.32,29,94.28,34.29L89,36.62a4.62,4.62,0,0,0-2.76,4.23Z"/><path d="M139.33,12.93a20.6,20.6,0,0,1,4.57.52c4.88,1.13,9.25,3.39,13.47,5.58,2,1.06,4,2.07,6,2.94l12.33,5.46,14.2,6.28a7.82,7.82,0,0,1,4.65,7.14V78a7.75,7.75,0,0,1-6.11,7.6c-4.32,1-8.62,2-12.93,3-4.72,1.1-9.6,2.24-14.42,3.3-14.28,3.16-26.76,3.49-38.16,1l-33.68-7.3A7.85,7.85,0,0,1,83.07,78V40.85a7.82,7.82,0,0,1,4.65-7.14L93,31.38c4-1.76,8.07-3.49,12-5.15,7.9-3.34,16.07-6.8,23.79-10.67A23.49,23.49,0,0,1,139.33,12.93Zm-.68,75.27a97.92,97.92,0,0,0,21-2.49c4.79-1.06,9.65-2.19,14.35-3.29,4.32-1,8.65-2,13-3a1.44,1.44,0,0,0,1.13-1.4V40.85a1.45,1.45,0,0,0-.86-1.32l-14.2-6.29-12.33-5.46c-2.16-1-4.28-2-6.32-3.1-4.06-2.1-7.89-4.09-12-5a16,16,0,0,0-10.81,1.6c-7.91,4-16.17,7.46-24.16,10.84-3.92,1.66-8,3.37-11.92,5.12l-5.28,2.33a1.45,1.45,0,0,0-.86,1.32V78a1.45,1.45,0,0,0,1.14,1.41l33.68,7.3A67.73,67.73,0,0,0,138.65,88.2Z"/><path class="cls-2" d="M129.72,37.69s8-12.31,20.8,0"/><path class="cls-2" d="M111.2,63.93s27.81,13.15,56.73,0"/><path d="M0,11.58a5.21,5.21,0,1,1,5.15,5.27A5.2,5.2,0,0,1,0,11.58ZM1.64,80.15V35a3.57,3.57,0,0,1,3.62-3.62A3.48,3.48,0,0,1,8.78,35V80.15a3.58,3.58,0,0,1-3.52,3.74A3.67,3.67,0,0,1,1.64,80.15Z"/><path d="M98.75,48.21V80.15a3.57,3.57,0,1,1-7.14,0v-31c0-8.54-4.79-11.7-11.11-11.7-5.15,0-10.77,3.51-13.81,9.24V80.15a3.57,3.57,0,1,1-7.14,0v-31c0-8.54-4.79-11.7-11-11.7-5.26,0-10.76,3.51-13.92,9.48V80.15a3.58,3.58,0,0,1-3.51,3.74,3.67,3.67,0,0,1-3.63-3.74V35a3.65,3.65,0,0,1,3.63-3.62A3.55,3.55,0,0,1,34.63,35v2.93a18.56,18.56,0,0,1,15.45-7.49,16,16,0,0,1,14.74,9.13C69,33.7,75,30.42,81.67,30.42,91.14,30.42,98.75,37.21,98.75,48.21Z"/><path d="M250.14,48.21V80.15a3.57,3.57,0,1,1-7.14,0v-31c0-8.54-4.8-11.7-11.12-11.7-5.14,0-10.76,3.51-13.8,9.24V80.15a3.57,3.57,0,1,1-7.14,0v-31c0-8.54-4.8-11.7-11-11.7-5.26,0-10.76,3.51-13.92,9.48V80.15a3.58,3.58,0,0,1-3.51,3.74,3.67,3.67,0,0,1-3.63-3.74V35a3.65,3.65,0,0,1,3.63-3.62A3.55,3.55,0,0,1,186,35v2.93a18.54,18.54,0,0,1,15.44-7.49,16,16,0,0,1,14.75,9.13c4.21-5.85,10.17-9.13,16.84-9.13C242.53,30.42,250.14,37.21,250.14,48.21Z"/><path d="M303.72,44.81V80.15a3.58,3.58,0,0,1-3.51,3.74,3.67,3.67,0,0,1-3.63-3.74V77.34c-6.31,5.5-11.93,7.25-17.31,7.25-9,0-15.45-6.08-15.45-14.15,0-6.91,4.1-11.7,13.22-14.4,5.74-1.75,13.34-2.69,19.54-3.39V46.57c0-6.2-4.09-9.25-10.53-9.25a24.37,24.37,0,0,0-11.35,2.93,7.8,7.8,0,0,1-3.62,1.4,3.2,3.2,0,0,1-3.28-3.27c0-1.17.7-2.23,2.22-3.28,3.51-2.46,10.42-4.68,16.27-4.68C297.29,30.42,303.72,36.5,303.72,44.81Zm-7.14,25V58.74A125.21,125.21,0,0,0,280,61.9c-6.32,1.87-8.78,4.44-8.78,8.3,0,4.33,3.75,7.49,9.25,7.49C285,77.69,291.67,75.23,296.58,69.85Z"/><path d="M320.1,80.26c-1.52-1.05-2.11-2-2.11-3.51a3.42,3.42,0,0,1,3.51-3.39,7.48,7.48,0,0,1,3.63,1.41,22,22,0,0,0,10.76,2.92c7.49,0,11.12-3.28,11.12-7.61,0-4.56-3.63-6.66-11.93-9.71-6.44-2.34-16.15-5.85-16.15-15.79,0-7.84,6.2-14.16,17.32-14.16a32.49,32.49,0,0,1,12.51,2.69c1.53.7,3.28,1.76,3.28,3.86a3.42,3.42,0,0,1-3.39,3.51c-1.06,0-2.23-.7-4.1-1.4A22.71,22.71,0,0,0,336,37.32c-6.79,0-9.83,3.16-9.83,7.14,0,4.56,4,6.32,12.64,9.71,8.42,3.28,15.44,6.67,15.44,15.33,0,8.42-6.67,15.09-17.78,15.09A31.07,31.07,0,0,1,320.1,80.26Z"/><path d="M413.35,80.15a3.65,3.65,0,0,1-3.51,3.74c-1.64,0-2.58-.82-3.75-2.34l-20-24.92c-3.28,2.81-6.44,5.73-9.95,8.66V80.15a3.58,3.58,0,0,1-3.51,3.74A3.67,3.67,0,0,1,369,80.15V3.63A3.65,3.65,0,0,1,372.63,0a3.55,3.55,0,0,1,3.51,3.63V57l27.73-24.34a5,5,0,0,1,3-1.28,3.26,3.26,0,0,1,3.4,3.39,3.59,3.59,0,0,1-1.52,2.81L391.35,52.3l21.06,25.51A3.79,3.79,0,0,1,413.35,80.15Z"/></g></g></svg>