<svg xmlns="http://www.w3.org/2000/svg" viewBox="0 0 431.83 348.16"><defs><style>.cls-1{fill:#d55527;}.cls-1,.cls-10,.cls-11,.cls-12,.cls-13,.cls-14,.cls-15,.cls-16,.cls-17,.cls-2,.cls-3,.cls-4,.cls-5,.cls-6,.cls-7,.cls-8,.cls-9{fill-rule:evenodd;}.cls-2{fill:#e2ba05;}.cls-3{fill:#d3a20d;}.cls-4{fill:#f7d800;}.cls-5{fill:#ebc700;}.cls-6{fill:#dfb308;}.cls-7{fill:#dfb408;}.cls-8{fill:#d5a50d;}.cls-9{fill:#967348;}.cls-10{fill:#6c5635;}.cls-11{fill:#808184;}.cls-12{fill:#f4d500;}.cls-13{fill:#e4bc04;}.cls-14{fill:#d4a30d;}.cls-15{fill:#bbbdbf;}.cls-16{fill:#fff;}.cls-17{fill:#dbad0a;}</style></defs><g id="Layer_2" data-name="Layer 2"><g id="Layer_1-2" data-name="Layer 1"><g id="Layer_2-2" data-name="Layer 2"><g id="Layer_1-2-2" data-name="Layer 1-2"><path class="cls-1" d="M222.76,202c95.18,0,172.81-18.95,172.81-42.19s-77.63-42.2-172.81-42.2S50,136.62,50,159.82,127.57,202,222.76,202Z"/><polygon class="cls-2" points="49.94 159.77 76.75 47.37 368.75 26.84 395.34 157.64 49.94 159.77"/><path class="cls-3" d="M355,157.89l-102.28.63L67.3,142C130.53,74.9,333.61,118.44,368.78,41.15q1.68,22.65,3.38,45.3Z"/><path class="cls-4" d="M220.67,1.46C301.3-4.22,367.6,7.15,368.75,26.84S305.46,67.08,224.83,72.75,77.89,67.06,76.75,47.37,140,7.13,220.67,1.46Z"/><path class="cls-5" d="M368.76,26.84C384.57,140.16,42.07,99.51,0,182.84q4.37,58.29,8.72,116.58c83.76-81.35,387.5-23.93,386.84-139.63Q382.15,93.31,368.76,26.84Z"/><path class="cls-6" d="M37.7,279.89c107-51.54,348.63-16.74,357.57-114.08-92,25-423.91-30.57-362.14,109.76Z"/><path class="cls-7" d="M335.91,81.25q-4.14,2.31-8.69,4.43l25.54,130.86c3-1.4,5.92-2.87,8.69-4.42L335.91,81.25Zm-71.59,24.07c-3,.66-6.07,1.32-9.16,2l21.33,129.4c3.1-.5,6.18-1,9.22-1.54L264.32,105.32Zm-73.27,13.16-9.27,1.46,17.36,126.47,9.32-1L191.05,118.52Zm-73,12c-3.11.57-6.18,1.16-9.23,1.76l13.9,124c3.07-.5,6.16-1,9.26-1.46L118,130.51ZM46,149.06q-4.71,1.8-9,3.75l10.8,122.65q4.41-1.79,9.07-3.43Z"/><path class="cls-8" d="M344.13,172.35l8.63,44.19c3-1.4,5.92-2.87,8.69-4.42l-7.87-40.35c-3.07.22-6.23.41-9.45.58ZM41.9,209.23a70.39,70.39,0,0,1,8.8-6.44L56.87,272q-4.66,1.65-9.07,3.43l-5.9-66.23Zm72.49-26.91q4.56-.73,9.27-1.38l8.28,73.9c-3.1.48-6.19,1-9.26,1.46l-8.29-74Zm75-6.77,9.42-.36,9.63,70.18-9.32,1-9.73-70.86ZM266.16,174l9.47-.08,10.13,61.2c-3,.53-6.12,1-9.22,1.54Z"/><path class="cls-9" d="M221.76,20c38.75-2.73,70.62,2.74,71.17,12.2s-30.42,19.34-69.17,22.07-70.62-2.74-71.17-12.2S183,22.69,221.76,20Z"/><path class="cls-10" d="M204.13,54.94c-29.35,0-51.1-5.1-51.55-12.9-.51-8.59,24.93-17.51,58.58-21.13a79.72,79.72,0,0,0-7,33.07A7.7,7.7,0,0,0,204.13,54.94Z"/><path class="cls-11" d="M319.35,180.61l23.39-57,9.82-.51L422,198.42l-22.2,54.38a15.06,15.06,0,0,1-4.42,6.2l1.4,2.46-8.08.35h0C362.49,265.54,307.38,209.78,319.35,180.61Z"/><path class="cls-12" d="M0,182.82C8.61,267,258.12,315.29,325,194.87c4.7,29,45.37,67.38,68.27,67.05-78.74,132-382.22,85.37-384.52,37.48Q4.36,241.11,0,182.82Z"/><path class="cls-6" d="M351.16,238.28C365,252,381.47,262.09,393.24,261.92c-70.75,118.6-322.92,93-375,51.82,131.63,47.89,341.63,14,332.94-75.46Z"/><path class="cls-13" d="M18.6,217.67a103.69,103.69,0,0,0,10.16,8.8l8.75,98.2q-5.35-2.31-9.8-4.76L18.6,217.67Zm72,38.15q4.84,1.41,9.82,2.65l16.65,85.78c-3.24-.41-6.42-.86-9.56-1.34L90.6,255.82Zm76.25,11.31c3.18.05,6.37,0,9.55,0L202,347.6c-3.15.15-6.29.28-9.43.37l-25.71-80.82Zm75-9.81c3-.91,5.94-1.9,8.85-2.95L287.89,334c-3,.88-6,1.7-9.07,2.48l-37-79.21Zm62.3-35.3c2.36-2.3,4.64-4.69,6.81-7.19l52.68,81.27q-3.7,3.07-7.62,5.94Z"/><path class="cls-14" d="M37.08,319.91l.43,4.76q-5.35-2.31-9.8-4.76l-.27-3C30.62,317.91,33.83,319,37.08,319.91Zm308.3-52a62.48,62.48,0,0,1-5.67,8.94L356,302q3.92-2.85,7.62-5.94L345.38,267.9Zm-65.94,48c-2.87,1-5.83,2-8.83,3l8.21,17.59c3.05-.78,6.07-1.6,9.07-2.48l-8.45-18.11Zm-82,17.45c-3.08.3-6.19.56-9.3.79l4.38,13.77c3.14-.09,6.28-.22,9.43-.37Zm-82.42.51c-3.16-.27-6.33-.55-9.47-.88l1.92,9.89c3.14.48,6.32.93,9.56,1.34Z"/><path class="cls-15" d="M329.17,180.1l23.39-57,79.27,74.82-22.2,54.37C395.47,287,314.94,214.77,329.17,180.1Z"/><path class="cls-11" d="M379.55,173.48c12.1,0,23.06,10.63,24.49,23.76S396.81,221,384.76,221s-23.07-10.63-24.49-23.75S367.45,173.48,379.55,173.48Z"/><path class="cls-16" d="M385.65,179c6.73,0,12.82,5.92,13.61,13.21s-4,13.21-10.74,13.21-12.83-5.91-13.62-13.21S378.92,179,385.65,179Z"/><path class="cls-17" d="M221.3,12.23c56.25-4,102.5,4,103.3,17.71S280.45,58,224.2,61.94s-102.5-4-103.31-17.7S165,16.16,221.3,12.24Zm.46,7.78C183,22.73,152,32.61,152.59,42.08S185,57,223.76,54.28s69.72-12.61,69.17-22.07S260.5,17.24,221.76,20Z"/></g></g></g></g></svg>