<svg xmlns="http://www.w3.org/2000/svg" viewBox="0 0 586.44 979.18"><defs><style>.cls-1{fill:#caf0ff;}.cls-2{fill:#b6ffd0;}.cls-3{fill:#f4a2b2;opacity:0.46;}.cls-4{fill:#fff;}.cls-5,.cls-6{fill:none;stroke-miterlimit:10;}.cls-5{stroke:#fff;stroke-width:2.83px;}.cls-6{stroke:#94ffc7;stroke-width:1.42px;}</style></defs><g id="Layer_2" data-name="Layer 2"><g id="Layer_1-2" data-name="Layer 1"><path class="cls-1" d="M191.16,669.12s0-.08,0,0l-.11.08a2.84,2.84,0,0,0-.23.19c-.17.16-.34.29-.52.47-.36.34-.73.69-1.1,1.08-.75.74-1.5,1.54-2.24,2.37-1.48,1.64-3,3.37-4.34,5.18a107.41,107.41,0,0,0-7.81,11.42,103.69,103.69,0,0,0-11,26,102.45,102.45,0,0,0-2.61,14.2,100.31,100.31,0,0,0-.39,14.74A107.26,107.26,0,0,0,167,774.53a111.5,111.5,0,0,1-14.49-28.12,113,113,0,0,1-4-15.86A118.56,118.56,0,0,1,146.92,714a125.49,125.49,0,0,1,4.22-33.62A136.82,136.82,0,0,1,156.61,664c1.08-2.7,2.28-5.37,3.58-8,.65-1.34,1.34-2.67,2.08-4,.35-.67.75-1.36,1.15-2l.63-1.07.37-.57.19-.3.3-.42Z"/><path class="cls-1" d="M139.55,566.49l-1.27-1-1.12-.88L135,562.9c-1.43-1.17-2.84-2.33-4.23-3.51q-4.17-3.52-8.19-7.12c-5.38-4.8-10.59-9.73-15.7-14.75Q91.56,522.43,77.77,506A412.35,412.35,0,0,1,51.91,472,352.7,352.7,0,0,1,30,435.3C17,410,7.28,382.9,2.82,355c-.61-3.48-1-7-1.46-10.49s-.72-7-.91-10.52S.13,327,0,323.44c0-3.51,0-7,.13-10.51a212.23,212.23,0,0,1,5.51-41.37,210,210,0,0,0-1.26,41.3c.17,3.42.6,6.83.92,10.23.48,3.4.86,6.79,1.49,10.15S8,340,8.71,343.29s1.49,6.64,2.43,9.92c7,26.31,18.86,51,33.59,73.55a333.26,333.26,0,0,0,24.16,32.41,388.12,388.12,0,0,0,27.56,29.5c9.67,9.36,19.78,18.25,30.23,26.64q7.84,6.29,15.94,12.17,4,2.92,8.12,5.72c1.36.93,2.73,1.83,4.08,2.73l2,1.3,1,.62.86.53Z"/><path class="cls-1" d="M456.57,633.35l.3.42.19.3.36.57.64,1.07c.4.69.79,1.38,1.15,2,.74,1.35,1.42,2.68,2.07,4,1.31,2.67,2.5,5.34,3.59,8a136.82,136.82,0,0,1,5.47,16.38,125.49,125.49,0,0,1,4.22,33.62A118.56,118.56,0,0,1,473,716.41a113,113,0,0,1-4,15.86,111.21,111.21,0,0,1-14.5,28.12,107.21,107.21,0,0,0,6.16-29.77,94,94,0,0,0-3-28.94,104.14,104.14,0,0,0-11-25.95,106.53,106.53,0,0,0-7.81-11.43c-1.4-1.8-2.86-3.54-4.34-5.18-.74-.83-1.49-1.62-2.24-2.37-.37-.39-.74-.73-1.1-1.08-.18-.18-.35-.31-.52-.47a2.84,2.84,0,0,0-.23-.19l-.11-.08s0,0,0,.05Z"/><path class="cls-1" d="M470.73,533.14c.15-.12.48-.44.74-.68l.84-.8L474,530c1.14-1.14,2.3-2.3,3.44-3.48q3.43-3.53,6.81-7.19Q491,512,497.44,504.27q12.82-15.42,24.24-32a388.34,388.34,0,0,0,21-34.34c3.19-5.91,6.24-11.91,9.1-18s5.5-12.27,8-18.53c9.84-25,16.39-51.52,17.91-78.64.37-6.77.48-13.58.18-20.39-.07-3.41-.39-6.8-.61-10.21s-.65-6.8-1.18-10.18a211.14,211.14,0,0,0-9.59-40.09,213.75,213.75,0,0,1,13.77,39.29c.88,3.38,1.53,6.82,2.26,10.24s1.27,6.9,1.7,10.38a210.18,210.18,0,0,1,2,21c1.33,28.19-2.64,56.65-10.27,84Q573,417,569.54,427.08c-2.35,6.71-4.91,13.35-7.63,19.92a406.77,406.77,0,0,1-18.45,38.49q-10.2,18.78-22.17,36.59-6,8.88-12.42,17.54-3.22,4.33-6.6,8.6-1.69,2.13-3.44,4.27L497,554.63l-.93,1.09-1.05,1.19Z"/><path class="cls-2" d="M532,520.56c-6.29-3-12.66-6.35-18.94-9.54-41.66-21.16-80.84-11.4-122.5-32.56-19.55-9.93-41.57-17.48-61.12-27.4-2.33-1.19-23-5.62-26.3-5.15-3.3-.47-19,4-21.37,5.15-19.55,9.92-36.62,17.47-56.17,27.4C183.89,499.62,139.76,489.86,98.1,511c-6.28,3.19-12.64,6.5-18.93,9.54C58.84,530.4,146,693.63,156.38,706.4c36.5,45.07,89.52,78.94,149,90.48V797l.21-.05.21.05v-.09c59.44-11.54,112.47-45.41,149-90.48C465.08,693.63,552.27,530.4,532,520.56Z"/><path class="cls-3" d="M351.93,644.06a6.2,6.2,0,0,1-3.07-7.22,51.56,51.56,0,0,1-4.23-3.24c-4.53-3.56-9.84-5.73-15.67-4.29-5.06,1.26-10.27,7.08-15.46,6.55-3-.3-5.82-2.27-8.89-2.71a28.92,28.92,0,0,0-9.28.35c-5.71,1-12.11,4.5-18,3.59-3.58-.55-6.48-2.84-10.27-2.72a10.94,10.94,0,0,0-2.5.37c-7.78,6.5-16.43,11.64-25.18,16.64q14.33,11.08,28.08,22.88a5.66,5.66,0,0,1,2,6l4.47,3.54c8.93,1.29,18.42.79,26.77.44,11.69-.48,23.75-2,34.58-6.28a6.34,6.34,0,0,1,3-3.43c5.61-3.18,11.28-6.26,16.91-9.42.24-.24.49-.47.73-.72q2.34-1.21,4.71-2.37,4.89-2.84,9.65-5.84A191.79,191.79,0,0,0,351.93,644.06ZM263.37,651l-.42-.29A12.86,12.86,0,0,1,265.8,649c2.12-.78,2.58-.53,4.49.12C268,649.74,265.68,650.36,263.37,651Zm17.73,10-.53-.25,6.22-1.54A27.06,27.06,0,0,1,281.1,661Z"/><path class="cls-4" d="M449.58,687c-2.56,19.71-5.75,39.66-7.64,59.73-4.33,46.21-2.62,92.17,8.85,137.36,7.13,28,18.21,54.27,38.78,75.48,8.23,8.48,17.62,15.38,28.78,19.63a3.54,3.54,0,0,0-1.62-1.88c-19.86-12.48-33.76-30.11-43.86-51-14-28.83-19.88-59.74-23.15-91.28-4.81-46.34-2-92.61,1.7-138.84.57-7.26,1.73-15.57,5.67-21.3,23.17-33.79,38.4-71,49.2-110.18C517.74,523.28,522.34,481,518.75,439c-1.26,19.59-1.57,40.26-4.1,60.66-9,72.34-35.39,137.77-80.54,195.22-22,28-47.72,51.79-80.21,67.35-20.71,9.93-42.35,15-65.41,11.12-30.67-5.19-55.81-21.21-78.55-41.31-44.26-39.12-75.17-87.68-98.47-141.45-12.52-28.92-20.91-59.09-27-90a321.55,321.55,0,0,0,5,32.09c12.56,56.39,35.75,108,70.28,154.42a36.88,36.88,0,0,1,7.78,19.63c4.27,46.25,6.19,92.5.71,138.76-2.93,24.69-8.25,48.85-20.55,70.84-9.66,17.26-23,30.38-42.63,35.82-3.43,1-6.92,1.68-11.56,2.79a18.5,18.5,0,0,0,2.92.88,31,31,0,0,0,4.09,0c17.83-1.47,33.39-8.27,44.11-22.65A146.48,146.48,0,0,0,163,900.86c11.6-28.83,14.3-59.46,15.11-90.22,1-36.89-2.63-73.45-9.19-109.85.66.18,1.21.16,1.46.42,1.23,1.33,2.39,2.72,3.57,4.1,19,22.28,39.87,42.38,65.44,57.05q68.6,39.33,136.07-2.08C395.21,748.12,412,732.56,427,715,435,705.75,442.35,696,449.58,687ZM199.73,192.89c-42.74,22.65-71.24,58.55-92.92,100.56C86.06,333.66,69.91,409.54,78,427.56c3.25-37.38,21.8-66.85,46.68-92.7,13-13.54,26.82-26.66,41.76-38,30.19-22.92,61.65-44.15,92.07-66.78,16-11.89,30.91-25.23,46.21-38,2-1.65,3.36-4,5-6.07-18.83,14.39-37.63,28.21-56.87,41.37-18.93,12.93-38.79,24.54-57.37,37.94-19.31,13.93-38.28,28.49-56.11,44.24-24.94,22-44.65,48.23-56.22,80,2.57-21.33,8.67-41.64,16.63-61.37C121.47,274.51,151.52,227,199.73,192.89Zm234.24-3c-12,37-41.37,55-74.69,68.57-10.29,4.18-20.81,7.84-31.35,11.39-38.27,12.9-77.08,24.32-113.59,42C164.14,336.15,121.13,369,90.4,416.38c-1.39,2.16-2.62,4.42-3.93,6.64,2.88-1.3,4.29-3.56,6.07-5.47,15.28-16.43,29.5-34.07,46.19-48.93,36-32,79.18-51.84,124-68.33,33.43-12.3,67.12-23.94,100.3-36.88,20.44-8,39.13-19.31,53.63-36.38C425.73,216.32,431.82,204.12,434,189.92Zm-246.74,289c-18.46-9.13-38.69-15.15-54.1-31.14a108.35,108.35,0,0,1,43.57-15.06c-9.48,9.91-10.62,18.59-4.17,28,5.85,8.53,15.45,11.43,25.58,7.07-2.68-.91-4.73-1.54-6.75-2.28-7.37-2.73-13.31-7-15.2-15.17C174,441,180.55,431.88,188.57,433c-7.51,8.42-8.85,15.4-4.14,21.69,4,5.34,11.27,7.83,16.92,4.51,3.41-2,6.85-5.69,8-9.33,1.2-3.88-.32-8.59-.78-14.65l27.58,18.69a71.68,71.68,0,0,0-11.95-13.59c-28.52-24.17-69.4-16.64-96.86,2.63-1.31.92-1.94,4.53-1.25,6.22a19,19,0,0,0,5.46,6.8C147.61,469.51,166.92,475.4,187.23,478.93Zm232.69-1.21c17.86-3.44,35.13-8.61,50.53-18.7a40.65,40.65,0,0,0,7.63-6.73c6-6.64,5.82-9.23-1.89-13.65-20.06-11.49-41.46-17.31-64.68-13.27-17.56,3.05-31,12.47-41.35,27.88l27.95-18.82c-2.43,12.21-1,18.54,5.83,22.71,5.76,3.52,14,2.74,17.81-2.82,2.22-3.25,3.66-8.07,3.15-11.88s-3.83-7.51-5.92-11.25c3.58.6,7.22,2,9.06,4.63,6.51,9.33,3.56,20.12-6.83,25.93-3.65,2-7.76,3.24-12,5,8.38,4.22,18,2.37,23.84-5.7,3.09-4.29,5.43-10.32,5.21-15.44-.21-4.89-4.17-9.62-6.46-14.37,14.5,2.49,28.68,7,42.19,15.44C458.48,462.65,438.37,468.57,419.92,477.72Zm105.42-55.25.87-.44a8,8,0,0,0-.3-1.85c-10.33-25.73-14.4-52.84-17.81-80.12-3.94-31.51-7.55-63.07-12.34-94.45-2.92-19.13-8.58-37.67-20.84-53.33-5.78-7.39-12.87-13.08-22.31-15.51,15.27,8.89,23.54,22.91,29,38.92,1.76,5.14,3.63,10.37,4.38,15.71,4.72,33.68,9.12,67.41,13.69,101.12,3.72,27.5,9.15,54.59,20.51,80.14C521.71,416,523.62,419.21,525.34,422.47Zm11-53.86c7.29-1,11,2.56,12.34,9a55.51,55.51,0,0,1,1.47,12.14c-.38,23.39-.18,46.83-1.82,70.14-1.1,15.51-4.59,30.9-7.75,46.19-.86,4.14-3.62,9-7,11.16-3,1.87-8.07.39-12,.39,6.3,6.42,12.37,6.76,17.93-.36a44.48,44.48,0,0,0,8.19-15.47c3.18-12,6.79-24.3,7.28-36.59,1.06-26.47,1.26-53.08-.13-79.53-.81-15.49-4.58-17.58-19.43-20.43-.91-5.72-1.83-11.51-2.76-17.29-6,17.17-5.7,64.79,1.2,75.86C534.71,405.53,535.52,387.29,536.35,368.61Zm-7.14-62a7.41,7.41,0,0,0,.63-2.12c4.67-54.19-8.57-103.05-43.73-145.2-9.83-11.78-21.49-21.55-35.54-28.06-8.22-3.81-16.78-6.35-26.09-5.16a3.56,3.56,0,0,0,2.16,1.41c20.61,4,36.37,15.86,49.9,31.09C498.92,183.73,512.8,213.43,520,246,524.35,266,526.25,286.63,529.21,306.59ZM248.35,420.78c-23.78-31.59-101.52-45.25-132.86-23.45,8.07,0,14.57.39,21-.08,12.86-.93,25.7-3.43,38.53-3.3,19.41.21,35.9,10.2,52.79,18.51C234.42,415.71,241.49,418,248.35,420.78Zm228.83-32.42,0-2.45c-24-6.48-48.44-13.06-73.2-6.14-21.57,6-42.41,15-59.08,31.07a14.5,14.5,0,0,0,6.71-1q20-8.64,39.8-17.5c14.18-6.33,28.73-9.58,44.33-6.48a135.05,135.05,0,0,0,18.88,2.43C462.14,388.67,469.67,388.36,477.18,388.36ZM228.36,651l.8,1.58c6.36-3.24,12.82-6.29,19-9.75,13.95-7.76,28-9.86,42.82-2.27,7,3.57,14.68,4.18,21.57-.08,14.94-9.24,29.41-6.81,43.91.74,5.51,2.87,11,5.79,16.49,8.68l.86-1.44c-6.74-4.39-13.37-9-20.27-13.13-13.46-8.09-27.37-10.48-42-2.64-6.65,3.57-13.2,3.06-20.18-.15-14.79-6.81-29.25-4.81-42.73,3.82C241.69,640.9,235.13,646.13,228.36,651Zm25.92,5.05c34.53,5,69,4.14,103.42-.3A344.11,344.11,0,0,0,254.28,656.08Zm1.46,18c15.58,15.31,35.71,15.57,55.82,14.36C333.38,687.12,353,678,355,669.52,322.66,683.83,289.69,685.8,255.74,674.07Zm66.79-88.86c7.15-.66,11.89-3.74,14.64-9.45,1.51-3.15,1-6.57-3.3-5.79A76.63,76.63,0,0,0,316,575.35c-4,1.81-3.83,5.39.26,7.65A35,35,0,0,0,322.53,585.21Zm-44.54.12c2.24-.4,3.79-.28,4.83-1a78.1,78.1,0,0,0,6.43-5.13c-1.72-1.88-3.14-4.32-5.26-5.51a23.36,23.36,0,0,0-8.9-2.77c-3.24-.34-6.58.35-9.88.59,1.83,3.57,3.14,7.59,5.68,10.55C272.56,584.05,276,584.49,278,585.33ZM398.53,423c-14.3-1.69-29.87,10.38-29.26,21.91ZM238.64,446.6c-1.57-13.25-16.14-24.24-29.88-22.31Z"/><path class="cls-4" d="M333.55,0H574.91V252.27c-.36-2-.76-3.93-1.08-5.9-2.78-17-4.23-34.31-8.53-50.9C539.63,96.59,479,31.84,378.41,7.38,363.72,3.81,348.52,2.41,333.55,0Z"/><path d="M15.83,287.72c2.65-16.07,4.28-32.4,8.12-48.19,20.59-84.7,71.6-141.61,155.43-167.95a16.83,16.83,0,0,1,7.54-.94c-4.75,2-9.52,3.9-14.26,5.89C87.66,112.26,39.38,176.44,25.53,267c-9.09,59.47-1.24,117.7,14,175.27A12,12,0,0,0,41,444.65C43.21,434.16,45.16,424,56.15,420,41.78,353.34,49.18,287.61,60,222l2,.06q-1.33,19.32-2.66,38.64A370.28,370.28,0,0,1,92.11,189C108,162.25,126.23,137.33,151,118.13c9.54-7.39,20.37-13.11,30.61-19.6l1,1.62c-.12.33-.13.84-.35,1-35.36,19.28-59.52,49.42-79.45,83.27A363.73,363.73,0,0,0,59.05,301.11a50,50,0,0,0-1,10.83c.93,34.29,1.61,68.59,3.44,102.84.3,5.58.72,11.06-.43,16.89-1.12-2.57-2.23-5.15-3.54-8.19a11.46,11.46,0,0,0-8.57,10.25c-1,10.79-2.62,21.89-1.15,32.47,4,29,9.41,57.75,14.59,86.54,1,5.29,3.17,10.43,5.4,15.37,4.29,9.49,7.4,11.25,16.95,10.69-5.58,4.43-10.1,4.85-14.68-.52a69,69,0,0,1-11.09-17.71,199,199,0,0,1-15.28-66.08c-1.73-30.2-8.93-59-16.48-88-5.17-19.88-6.95-40.65-10.26-61-.32-2-.73-3.95-1.09-5.92Z"/><path d="M333.55,55.91c15,2.41,30.17,3.81,44.86,7.38C479,87.75,539.63,152.5,565.3,251.38c4.3,16.59,5.75,33.91,8.53,50.89.32,2,.72,3.94,1.08,5.91v53.18c-2.2,16.15-4.12,32.35-6.69,48.44A178.46,178.46,0,0,1,560,442.11c1.47-9.78,3.1-19.55,4.36-29.36,6.46-50.15,7.6-100.43-5-149.6-4.62-18-15.2-34.89-25.26-50.92-34.25-54.54-84.9-84.38-147.72-94.77-7.56-1.25-15.2-2-22.76-3.25,52.93-5.7,149.26,20.77,189.26,122.54-.44-1.75-.76-3.54-1.33-5.24C532,172.75,498.67,124.73,443.79,93.63,409.22,74,371.67,64,332.39,60.3c-18-1.7-36.22-1.89-54.28-2.77,0,.25-.07,0,0-.08.73-.54,1.48-1,2.23-1.54Z"/><path d="M449.58,687C442.35,696,435,705.75,427,715c-15,17.52-31.8,33.08-51.53,45.24q-67.41,41.55-136.07,2.08c-25.57-14.67-46.47-34.77-65.44-57.05-1.18-1.38-2.34-2.77-3.57-4.1-.25-.26-.8-.24-1.46-.42,6.56,36.4,10.16,73,9.19,109.85-.81,30.76-3.51,61.39-15.11,90.22a146.48,146.48,0,0,1-18.41,32.34c-10.72,14.38-26.28,21.18-44.11,22.65a31,31,0,0,1-4.09,0,18.5,18.5,0,0,1-2.92-.88c4.64-1.11,8.13-1.84,11.56-2.79,19.65-5.44,33-18.56,42.63-35.82,12.3-22,17.62-46.15,20.55-70.84,5.48-46.26,3.56-92.51-.71-138.76a36.88,36.88,0,0,0-7.78-19.63c-34.53-46.39-57.72-98-70.28-154.42a321.55,321.55,0,0,1-5-32.09c6.11,30.9,14.5,61.07,27,90,23.3,53.77,54.21,102.33,98.47,141.45,22.74,20.1,47.88,36.12,78.55,41.31,23.06,3.9,44.7-1.19,65.41-11.12,32.49-15.56,58.23-39.38,80.21-67.35,45.15-57.45,71.55-122.88,80.54-195.22,2.53-20.4,2.84-41.07,4.1-60.66,3.59,42-1,84.27-12.46,125.73-10.8,39.14-26,76.39-49.2,110.18-3.94,5.73-5.1,14-5.67,21.3-3.69,46.23-6.51,92.5-1.7,138.84,3.27,31.54,9.19,62.45,23.15,91.28,10.1,20.85,24,38.48,43.86,51a3.54,3.54,0,0,1,1.62,1.88c-11.16-4.25-20.55-11.15-28.78-19.63-20.57-21.21-31.65-47.43-38.78-75.48-11.47-45.19-13.18-91.15-8.85-137.36C443.83,726.64,447,706.69,449.58,687Z"/><path d="M199.73,192.89c-48.21,34.1-78.26,81.62-99.9,135.27-8,19.73-14.06,40-16.63,61.37,11.57-31.77,31.28-58,56.22-80,17.83-15.75,36.8-30.31,56.11-44.24,18.58-13.4,38.44-25,57.37-37.94,19.24-13.16,38-27,56.87-41.37-1.65,2-3,4.42-5,6.07-15.3,12.8-30.22,26.14-46.21,38-30.42,22.63-61.88,43.86-92.07,66.78-14.94,11.34-28.73,24.46-41.76,38C99.84,360.71,81.29,390.18,78,427.56c-8.13-18,8-93.9,28.77-134.11C128.49,251.44,157,215.54,199.73,192.89Z"/><path d="M434,189.92c-2.15,14.2-8.24,26.4-17.34,37.11-14.5,17.07-33.19,28.41-53.63,36.38-33.18,12.94-66.87,24.58-100.3,36.88-44.79,16.49-88,36.29-124,68.33-16.69,14.86-30.91,32.5-46.19,48.93-1.78,1.91-3.19,4.17-6.07,5.47,1.31-2.22,2.54-4.48,3.93-6.64,30.73-47.39,73.74-80.23,123.94-104.52,36.51-17.66,75.32-29.08,113.59-42,10.54-3.55,21.06-7.21,31.35-11.39C392.6,244.93,422,226.93,434,189.92Z"/><path d="M187.23,478.93c-20.31-3.53-39.62-9.42-55.7-23a19,19,0,0,1-5.46-6.8c-.69-1.69-.06-5.3,1.25-6.22,27.46-19.27,68.34-26.8,96.86-2.63a71.68,71.68,0,0,1,11.95,13.59l-27.58-18.69c.46,6.06,2,10.77.78,14.65-1.13,3.64-4.57,7.33-8,9.33-5.65,3.32-12.93.83-16.92-4.51-4.71-6.29-3.37-13.27,4.14-21.69-8-1.08-14.59,8-12.41,17.39,1.89,8.18,7.83,12.44,15.2,15.17,2,.74,4.07,1.37,6.75,2.28-10.13,4.36-19.73,1.46-25.58-7.07-6.45-9.41-5.31-18.09,4.17-28a108.35,108.35,0,0,0-43.57,15.06C148.54,463.78,168.77,469.8,187.23,478.93Z"/><path d="M419.92,477.72c18.45-9.15,38.56-15.07,54-31.07-13.51-8.43-27.69-12.95-42.19-15.44,2.29,4.75,6.25,9.48,6.46,14.37.22,5.12-2.12,11.15-5.21,15.44-5.82,8.07-15.46,9.92-23.84,5.7,4.27-1.73,8.38-2.93,12-5,10.39-5.81,13.34-16.6,6.83-25.93-1.84-2.64-5.48-4-9.06-4.63,2.09,3.74,5.4,7.31,5.92,11.25s-.93,8.63-3.15,11.88c-3.8,5.56-12.05,6.34-17.81,2.82-6.84-4.17-8.26-10.5-5.83-22.71l-27.95,18.82c10.33-15.41,23.79-24.83,41.35-27.88,23.22-4,44.62,1.78,64.68,13.27,7.71,4.42,7.93,7,1.89,13.65a40.65,40.65,0,0,1-7.63,6.73C455.05,469.11,437.78,474.28,419.92,477.72Z"/><path d="M525.34,422.47c-1.72-3.26-3.63-6.45-5.12-9.81-11.36-25.55-16.79-52.64-20.51-80.14-4.57-33.71-9-67.44-13.69-101.12-.75-5.34-2.62-10.57-4.38-15.71-5.49-16-13.76-30-29-38.92,9.44,2.43,16.53,8.12,22.31,15.51,12.26,15.66,17.92,34.2,20.84,53.33,4.79,31.38,8.4,62.94,12.34,94.45,3.41,27.28,7.48,54.39,17.81,80.12a8,8,0,0,1,.3,1.85Z"/><path d="M536.35,393.16c-.83,18.67-1.64,36.92-2.45,55.17-6.9-11.08-7.21-58.69-1.2-75.87.93,5.79,1.85,11.58,2.76,17.29,14.85,2.86,18.62,4.95,19.43,20.44,1.39,26.45,1.19,53.05.13,79.53-.49,12.29-4.1,24.56-7.28,36.59a44.48,44.48,0,0,1-8.19,15.47c-5.56,7.12-11.63,6.77-17.93.36,3.88,0,9,1.48,12-.4,3.4-2.14,6.16-7,7-11.15,3.16-15.29,6.65-30.68,7.75-46.19,1.64-23.31,1.44-46.76,1.82-70.15a55.42,55.42,0,0,0-1.47-12.13C547.36,395.72,543.64,392.12,536.35,393.16Z"/><path d="M529.21,306.59c-3-20-4.86-40.55-9.26-60.59-7.15-32.57-21-62.27-43.41-87.45-13.53-15.23-29.29-27.11-49.9-31.09a3.56,3.56,0,0,1-2.16-1.41c9.31-1.19,17.87,1.35,26.09,5.16,14.05,6.51,25.71,16.28,35.54,28.06,35.16,42.15,48.4,91,43.73,145.2A7.41,7.41,0,0,1,529.21,306.59Z"/><path d="M248.35,420.78c-6.86-2.74-13.93-5.07-20.54-8.32-16.89-8.31-33.38-18.3-52.79-18.51-12.83-.13-25.67,2.37-38.53,3.3-6.43.47-12.93.08-21,.08C146.83,375.53,224.57,389.19,248.35,420.78Z"/><path d="M477.18,388.36c-7.51,0-15,.31-22.53-.1a135.05,135.05,0,0,1-18.88-2.43c-15.6-3.1-30.15.15-44.33,6.48q-19.86,8.85-39.8,17.5a14.5,14.5,0,0,1-6.71,1c16.67-16.12,37.51-25,59.08-31.07,24.76-6.92,49.21-.34,73.2,6.14Z"/><path d="M228.36,651c6.77-4.9,13.33-10.13,20.35-14.64,13.48-8.63,27.94-10.63,42.73-3.82,7,3.21,13.53,3.72,20.18.15,14.59-7.84,28.5-5.45,42,2.64,6.9,4.14,13.53,8.74,20.27,13.13l-.86,1.44c-5.5-2.89-11-5.81-16.49-8.68-14.5-7.55-29-10-43.91-.74-6.89,4.26-14.61,3.65-21.57.08-14.85-7.59-28.87-5.49-42.82,2.27-6.22,3.46-12.68,6.51-19,9.75Z"/><path d="M254.28,656.08a344.11,344.11,0,0,1,103.42-.3C323.27,660.22,288.81,661.12,254.28,656.08Z"/><path d="M255.74,674.07c33.95,11.73,66.92,9.76,99.24-4.55-2,8.52-21.6,17.6-43.42,18.91C291.45,689.64,271.32,689.38,255.74,674.07Z"/><path d="M322.53,585.21A35,35,0,0,1,316.3,583c-4.09-2.26-4.29-5.84-.26-7.65A76.63,76.63,0,0,1,333.87,570c4.27-.78,4.81,2.64,3.3,5.79C334.42,581.47,329.68,584.55,322.53,585.21Z"/><path d="M278,585.33c-2-.84-5.43-1.28-7.1-3.23-2.54-3-3.85-7-5.68-10.55,3.3-.24,6.64-.93,9.88-.59a23.36,23.36,0,0,1,8.9,2.77c2.12,1.19,3.54,3.63,5.26,5.51a78.1,78.1,0,0,1-6.43,5.13C281.78,585.05,280.23,584.93,278,585.33Z"/><path d="M398.53,423l-29.26,21.91C368.66,433.34,384.23,421.27,398.53,423Z"/><path d="M238.64,446.6l-29.88-22.31C222.5,422.36,237.07,433.35,238.64,446.6Z"/><path d="M280.37,444.54a247.55,247.55,0,0,1-2.55,35.23c-.4,2.93-.93,5.83-1.42,8.75s-1.12,5.8-1.78,8.69a172.65,172.65,0,0,1-4.74,17.17c-.95,2.83-2,5.64-3.17,8.42-.29.7-.62,1.4-.94,2.09l-.52,1.07-.55,1-2.09,3.85A144.32,144.32,0,0,0,255,546.29a39.7,39.7,0,0,0-3,16.42,53.5,53.5,0,0,0,3.8,16.83A44.09,44.09,0,0,1,249.25,563a36.11,36.11,0,0,1-.44-4.56c-.05-.76,0-1.53,0-2.3a19.58,19.58,0,0,1,.13-2.3l.27-2.29c.12-.76.29-1.5.44-2.26.26-1.52.73-3,1.13-4.44a113.08,113.08,0,0,1,7-16.48c.65-1.33,1.33-2.62,2-3.93l.47-.93.42-.92c.27-.64.56-1.28.82-1.94,1.08-2.62,2.06-5.32,3-8s1.77-5.49,2.58-8.26l1.2-4.17,1.11-4.21c.76-2.8,1.4-5.63,2.12-8.45s1.34-5.66,1.93-8.51C276,467.6,278.05,456.09,280.37,444.54Z"/><path d="M319.91,443.17c2.32,11.55,4.41,23.06,6.92,34.44.59,2.85,1.31,5.67,1.93,8.51s1.36,5.65,2.12,8.45l1.11,4.21,1.2,4.17c.81,2.77,1.65,5.54,2.58,8.26s1.88,5.44,3,8.05c.26.67.54,1.3.82,1.94l.42.92.47.93c.67,1.31,1.35,2.6,2,3.93a113.08,113.08,0,0,1,7,16.48c.4,1.48.87,2.92,1.13,4.44.15.76.32,1.5.44,2.26l.27,2.29a19.7,19.7,0,0,1,.13,2.3c0,.77.08,1.54,0,2.3a36.45,36.45,0,0,1-.44,4.57,44.11,44.11,0,0,1-6.57,16.55,53.5,53.5,0,0,0,3.8-16.83,39.73,39.73,0,0,0-3-16.42,145.25,145.25,0,0,0-7.59-15.46l-2.09-3.85-.55-1-.52-1.07c-.32-.69-.65-1.39-.94-2.09-1.19-2.78-2.22-5.59-3.17-8.42a172.65,172.65,0,0,1-4.74-17.17c-.66-2.89-1.22-5.79-1.78-8.69s-1-5.82-1.42-8.75A246.1,246.1,0,0,1,319.91,443.17Z"/><circle class="cls-4" cx="301.82" cy="466.63" r="12.37"/><circle class="cls-4" cx="226.87" cy="500.17" r="12.37"/><circle class="cls-4" cx="98.85" cy="534.75" r="12.37"/><circle class="cls-4" cx="125.31" cy="606.55" r="12.37"/><circle class="cls-4" cx="157.56" cy="671.29" r="12.37"/><circle class="cls-4" cx="218.58" cy="739.96" r="12.37"/><circle class="cls-4" cx="301.85" cy="561.57" r="12.37"/><circle class="cls-4" cx="297.64" cy="770.64" r="12.37"/><line class="cls-5" x1="295.66" y1="466.22" x2="224.54" y2="496.61"/><line class="cls-5" x1="108.53" y1="527.95" x2="224.54" y2="496.61"/><line class="cls-5" x1="292.49" y1="552.25" x2="224.54" y2="496.61"/><line class="cls-5" x1="302.84" y1="470.37" x2="302.87" y2="548.44"/><line class="cls-5" x1="98.85" y1="534.75" x2="301.85" y2="561.57"/><line class="cls-5" x1="125.31" y1="606.55" x2="301.85" y2="561.57"/><line class="cls-5" x1="157.56" y1="671.29" x2="301.85" y2="561.57"/><line class="cls-5" x1="224.43" y1="738.47" x2="301.85" y2="561.57"/><line class="cls-5" x1="297.64" y1="776.2" x2="301.85" y2="561.57"/><line class="cls-6" x1="213.09" y1="739.48" x2="296.69" y2="777.81"/><line class="cls-6" x1="148.56" y1="666.87" x2="213.09" y2="739.48"/><line class="cls-6" x1="114.46" y1="598.42" x2="148.56" y2="666.87"/><line class="cls-6" x1="89.46" y1="532.7" x2="111.47" y2="590.6"/></g></g></svg>