<svg xmlns="http://www.w3.org/2000/svg" viewBox="0 0 479.1 381.92"><defs><style>.cls-1{fill:#dceefa;}.cls-1,.cls-10,.cls-2,.cls-3,.cls-4,.cls-5,.cls-6,.cls-8,.cls-9{fill-rule:evenodd;}.cls-2{fill:#313033;}.cls-3{fill:#ccc9ff;}.cls-4{fill:#b9b7e8;}.cls-5{fill:#f29d72;}.cls-6{fill:#c46e43;}.cls-7{fill:#848389;}.cls-8{fill:#69676c;}.cls-9{fill:#fcc3a6;}.cls-10{fill:#f5b290;}</style></defs><g id="Layer_2" data-name="Layer 2"><g id="Layer_1-2" data-name="Layer 1"><g id="Layer_2-2" data-name="Layer 2"><g id="Layer_1-2-2" data-name="Layer 1-2"><path class="cls-1" d="M409.68,381.92h55.79l5.83-10.1a55.55,55.55,0,0,0,0-55.57,74.44,74.44,0,0,1,0-74.42A58.11,58.11,0,0,0,421,154.66a94.59,94.59,0,0,1-94.57-94.59,60.08,60.08,0,0,0-120.16,0,16.39,16.39,0,0,1-24.58,14.19A56.26,56.26,0,0,0,97.3,123a74.19,74.19,0,0,0,10,37.12,49.43,49.43,0,0,1-42.84,74.14A64.41,64.41,0,0,0,32.2,354.42a43,43,0,0,1,20.44,27.5Z"/><path class="cls-2" d="M265.55,220.66a47.15,47.15,0,1,0-47.14-47.16v0A47.24,47.24,0,0,0,265.55,220.66Z"/><path class="cls-2" d="M271.78,136.28A32.58,32.58,0,1,0,239.2,103.7,32.57,32.57,0,0,0,271.78,136.28Z"/><path class="cls-3" d="M282.91,381.92H166.15l1.66-105.34c.73-46.43,29.53-83.67,64.69-83.67h35.11c38.45,0,71.13,31,83.39,79.16l28,109.85Z"/><path class="cls-4" d="M318.41,213.79l.37.35.64.61.44.42.39.38.36.36.41.41.38.38.37.38.52.54.45.47.47.51c.13.13.24.26.36.39l.4.44.34.37.43.48.31.35.61.7.1.11h0l.68.8.24.3c.17.19.33.39.49.59l.25.3.51.64.21.25c.47.6.95,1.21,1.41,1.82l.16.21.56.75.17.22.57.79.12.16,1.42,2h0l.69,1,.05.08.67,1h0A131.71,131.71,0,0,1,351,272l28,109.85H303.31l11.33-126.29H276V193.42c15.67,1.88,30.15,9,42.36,20.34Z"/><path class="cls-4" d="M282.91,381.92H166.15l1.66-105.34a110.9,110.9,0,0,1,2.51-21.86l27.6,100.07h87.49L309,206.25a90.24,90.24,0,0,1,18.23,17L310.15,381.92Z"/><path class="cls-5" d="M198.6,194.79c.53-.12,1.07-.22,1.6-.32a22.44,22.44,0,0,0,18.35-22.19v-51h48.64v56.51a16.68,16.68,0,0,0,14.22,16.57c1,.16,2.07.34,3.11.53l-9.25,96.34Z"/><path class="cls-6" d="M218.55,160.05V124.58c.46-1.15,1-2.28,1.52-3.38h47.12v56.59a16.72,16.72,0,0,0,5.36,12.33,41.65,41.65,0,0,1-10.31,1.27C242.74,191.39,225.54,178.3,218.55,160.05Z"/><rect class="cls-7" x="334.83" y="120.74" width="83.13" height="53.46" rx="5.59"/><path class="cls-8" d="M392.41,124.41h18.91c1.63,0,3,1.62,3,3.6v7.52c0,2-1.34,3.6-3,3.6H392.41c-1.64,0-3-1.62-3-3.6V128C389.41,126,390.78,124.41,392.41,124.41Z"/><path class="cls-2" d="M409.31,135.31c1.61,0,2.92-1.59,2.92-3.54s-1.31-3.54-2.92-3.54-2.9,1.56-2.9,3.56S407.71,135.31,409.31,135.31Z"/><path class="cls-2" d="M401,135.31c1.61,0,2.92-1.59,2.92-3.54s-1.31-3.54-2.92-3.54-2.91,1.59-2.91,3.54S399.41,135.31,401,135.31Z"/><path class="cls-9" d="M236.3,327.67l69.31-141.36,2.86-30.63a34.35,34.35,0,0,1,12.68-24l15.09-12.52a7.13,7.13,0,0,1,10,1c.12.15.23.3.34.46A8.59,8.59,0,0,1,345,132.05l-6.42,5.32c41.64,20.83,19.86,60.2,2.25,57.35L297,378.24Z"/><path class="cls-10" d="M357,152.23c14.37,20.52-2.17,44.73-16.12,42.47L297,378.22,271.48,357h0l55.17-171.8C348.65,187.68,362.51,170.13,357,152.23Z"/><path class="cls-10" d="M248.19,83c24.7,0,45.72,21,47,46.93s-17.81,46.92-42.51,46.92-45.73-21-47-46.92S223.48,83,248.19,83Z"/><path class="cls-2" d="M266.85,121.69a34.75,34.75,0,1,0-34.74-34.76v0A34.81,34.81,0,0,0,266.85,121.69Z"/><path class="cls-2" d="M222.25,142.89a34.75,34.75,0,1,0-34.75-34.75A34.75,34.75,0,0,0,222.25,142.89Z"/><path class="cls-2" d="M189.15,216.72A47.15,47.15,0,1,0,142,169.56h0A47.24,47.24,0,0,0,189.15,216.72Z"/></g></g></g></g></svg>