<svg xmlns="http://www.w3.org/2000/svg" viewBox="0 0 128.57 128.52"><g id="Layer_2" data-name="Layer 2"><g id="Layer_1-2" data-name="Layer 1"><path d="M127.8,124,25.09,11.54c7.51-4.28,21.75-6,31.23-6a2.67,2.67,0,1,0,0-5.34h0C53.4.2,32.48.48,21.45,7.56L17.73,3.49A10.1,10.1,0,0,0,2.45,16.69a10.61,10.61,0,0,0,1.07,1l8.76,8A75.73,75.73,0,0,0,10.93,40.3c0,32.1-4.73,42.12-7.85,48.75C1.55,92.29.23,95.05.23,99.11c0,13,26.4,13.36,29.41,13.36,14.26,0,29.41-4.68,29.41-13.36S43.9,85.74,29.64,85.74a2.68,2.68,0,0,0,0,5.35c14.69,0,24.06,4.75,24.06,8s-9.37,8-24.06,8c-9.7,0-24.06-2.56-24.06-8,0-2.83.93-4.8,2.34-7.78,3.32-7.06,8.35-17.73,8.35-51A74.83,74.83,0,0,1,17,30.06l107.08,97.76a2.55,2.55,0,0,0,1.8.7,2.65,2.65,0,0,0,2.69-2.64,2.69,2.69,0,0,0-.69-1.83ZM20.8,20.8a2.68,2.68,0,0,1-3.78,0l-5.35-5.35a2.67,2.67,0,1,1,3.78-3.78h0l.88.88a10,10,0,0,0-1.07,2.21,2.67,2.67,0,0,0,1.68,3.38,2.25,2.25,0,0,0,.86.14,2.65,2.65,0,0,0,2.49-1.77l.51.51a2.69,2.69,0,0,1,0,3.78Z"/></g></g></svg>